<?xml version="1.0" encoding="UTF-8" standalone="no"?>
<!-- Created with Inkscape (http://www.inkscape.org/) -->

<svg
   xmlns:dc="http://purl.org/dc/elements/1.1/"
   xmlns:cc="http://creativecommons.org/ns#"
   xmlns:rdf="http://www.w3.org/1999/02/22-rdf-syntax-ns#"
   xmlns:svg="http://www.w3.org/2000/svg"
   xmlns="http://www.w3.org/2000/svg"
   xmlns:sodipodi="http://sodipodi.sourceforge.net/DTD/sodipodi-0.dtd"
   xmlns:inkscape="http://www.inkscape.org/namespaces/inkscape"
   id="svg2"
   version="1.1"
   inkscape:version="0.91 r13725"
   xml:space="preserve"
   width="150.97"
   height="147.24223"
   viewBox="0 0 150.97 147.24223"
   sodipodi:docname="github.svg"><metadata
     id="metadata8"><rdf:RDF><cc:Work
         rdf:about=""><dc:format>image/svg+xml</dc:format><dc:type
           rdf:resource="http://purl.org/dc/dcmitype/StillImage" /><dc:title></dc:title></cc:Work></rdf:RDF></metadata><defs
     id="defs6"><clipPath
       clipPathUnits="userSpaceOnUse"
       id="clipPath18"><path
         d="m 0,551.986 530.973,0 L 530.973,0 0,0 0,551.986 Z"
         id="path20"
         inkscape:connector-curvature="0" /></clipPath></defs><sodipodi:namedview
     pagecolor="#ffffff"
     bordercolor="#666666"
     borderopacity="1"
     objecttolerance="10"
     gridtolerance="10"
     guidetolerance="10"
     inkscape:pageopacity="0"
     inkscape:pageshadow="2"
     inkscape:window-width="1366"
     inkscape:window-height="682"
     id="namedview4"
     showgrid="false"
     fit-margin-top="0"
     fit-margin-left="0"
     fit-margin-right="0"
     fit-margin-bottom="0"
     inkscape:zoom="0.96742862"
     inkscape:cx="53.842895"
     inkscape:cy="28.806258"
     inkscape:window-x="0"
     inkscape:window-y="27"
     inkscape:window-maximized="1"
     inkscape:current-layer="g14" /><g
     id="g10"
     inkscape:groupmode="layer"
     inkscape:label="GitHub-Mark"
     transform="matrix(1.25,0,0,-1.25,-278.01523,218.05797)"><g
       id="g14"
       transform="translate(-67.808617,-46.308326)"><g
         id="g16"
         clip-path="url(#clipPath18)"><g
           id="g200"
           transform="translate(350.6088,220.7547)"><path
             d="m 0,0 c -33.347,0 -60.388,-27.035 -60.388,-60.388 0,-26.68 17.303,-49.316 41.297,-57.301 3.018,-0.559 4.126,1.31 4.126,2.905 0,1.439 -0.056,6.197 -0.082,11.243 -16.8,-3.653 -20.345,7.125 -20.345,7.125 -2.747,6.979 -6.705,8.836 -6.705,8.836 -5.479,3.748 0.413,3.671 0.413,3.671 6.064,-0.426 9.257,-6.224 9.257,-6.224 5.386,-9.231 14.127,-6.562 17.573,-5.019 0.543,3.902 2.107,6.567 3.834,8.075 -13.413,1.526 -27.513,6.705 -27.513,29.844 0,6.592 2.359,11.979 6.222,16.208 -0.627,1.522 -2.694,7.664 0.586,15.982 0,0 5.071,1.622 16.61,-6.191 4.817,1.338 9.983,2.009 15.115,2.033 5.132,-0.024 10.302,-0.695 15.128,-2.033 11.526,7.813 16.59,6.191 16.59,6.191 3.287,-8.318 1.22,-14.46 0.593,-15.982 3.872,-4.229 6.214,-9.616 6.214,-16.208 0,-23.195 -14.127,-28.301 -27.574,-29.796 2.166,-1.874 4.096,-5.549 4.096,-11.183 0,-8.08 -0.069,-14.583 -0.069,-16.572 0,-1.608 1.086,-3.491 4.147,-2.898 23.982,7.994 41.263,30.622 41.263,57.294 C 60.388,-27.035 33.351,0 0,0"
             style="fill:#ffffff;fill-opacity:1;fill-rule:evenodd;stroke:none"
             id="path202"
             inkscape:connector-curvature="0" /></g><g
           id="g204"
           transform="translate(313.0932,134.0515)"><path
             d="m 0,0 c -0.133,-0.301 -0.605,-0.391 -1.035,-0.184 -0.439,0.197 -0.684,0.606 -0.542,0.907 0.13,0.308 0.602,0.394 1.04,0.188 C -0.099,0.714 0.151,0.301 0,0"
             style="fill:#ffffff;fill-opacity:1;fill-rule:nonzero;stroke:none"
             id="path206"
             inkscape:connector-curvature="0" /></g><g
           id="g208"
           transform="translate(315.5395,131.323)"><path
             d="M 0,0 C -0.288,-0.267 -0.852,-0.143 -1.233,0.279 -1.629,0.7 -1.702,1.264 -1.41,1.534 -1.113,1.801 -0.567,1.676 -0.172,1.255 0.224,0.829 0.301,0.27 0,0"
             style="fill:#ffffff;fill-opacity:1;fill-rule:nonzero;stroke:none"
             id="path210"
             inkscape:connector-curvature="0" /></g><g
           id="g212"
           transform="translate(317.9204,127.8455)"><path
             d="M 0,0 C -0.37,-0.258 -0.976,-0.017 -1.35,0.52 -1.72,1.058 -1.72,1.702 -1.341,1.96 -0.967,2.218 -0.37,1.985 0.009,1.453 0.378,0.907 0.378,0.263 0,0"
             style="fill:#ffffff;fill-opacity:1;fill-rule:nonzero;stroke:none"
             id="path214"
             inkscape:connector-curvature="0" /></g><g
           id="g216"
           transform="translate(321.1821,124.4851)"><path
             d="M 0,0 C -0.331,-0.365 -1.036,-0.267 -1.552,0.231 -2.08,0.718 -2.227,1.409 -1.896,1.774 -1.56,2.14 -0.851,2.037 -0.331,1.543 0.193,1.057 0.352,0.361 0,0"
             style="fill:#ffffff;fill-opacity:1;fill-rule:nonzero;stroke:none"
             id="path218"
             inkscape:connector-curvature="0" /></g><g
           id="g220"
           transform="translate(325.6821,122.534)"><path
             d="m 0,0 c -0.147,-0.473 -0.825,-0.687 -1.509,-0.486 -0.683,0.207 -1.13,0.76 -0.992,1.238 0.142,0.477 0.824,0.7 1.513,0.485 C -0.306,1.031 0.142,0.481 0,0"
             style="fill:#ffffff;fill-opacity:1;fill-rule:nonzero;stroke:none"
             id="path222"
             inkscape:connector-curvature="0" /></g><g
           id="g224"
           transform="translate(330.6245,122.1726)"><path
             d="m 0,0 c 0.017,-0.498 -0.563,-0.911 -1.281,-0.92 -0.722,-0.017 -1.307,0.387 -1.315,0.877 0,0.503 0.568,0.911 1.289,0.924 C -0.589,0.895 0,0.494 0,0"
             style="fill:#ffffff;fill-opacity:1;fill-rule:nonzero;stroke:none"
             id="path226"
             inkscape:connector-curvature="0" /></g><g
           id="g228"
           transform="translate(335.2231,122.9549)"><path
             d="m 0,0 c 0.086,-0.485 -0.413,-0.984 -1.126,-1.117 -0.701,-0.129 -1.35,0.172 -1.439,0.653 -0.087,0.498 0.42,0.997 1.121,1.126 C -0.73,0.786 -0.091,0.494 0,0"
             style="fill:#ffffff;fill-opacity:1;fill-rule:nonzero;stroke:none"
             id="path230"
             inkscape:connector-curvature="0" /></g><g
           id="g232"
           transform="translate(224.8979,226.6882)"><path
             d="M 0,0 0,-0.5"
             style="fill:none;stroke:#3a7fc3;stroke-width:1;stroke-linecap:round;stroke-linejoin:miter;stroke-miterlimit:10;stroke-dasharray:none;stroke-opacity:1"
             id="path234"
             inkscape:connector-curvature="0" /></g></g></g></g></svg>